<svg width="45" height="28" viewBox="0 0 45 28" fill="none" xmlns="http://www.w3.org/2000/svg">
<path d="M14.9437 7.13829C13.7855 7.13829 12.8323 6.27315 12.6927 5.15869H8.8951C8.24787 5.15869 7.68301 5.28754 7.20221 5.54524C6.72142 5.80294 6.32299 6.13426 6.0103 6.53922C5.69594 6.94418 5.46058 7.39933 5.30255 7.90636C5.14453 8.41339 5.0672 8.90536 5.0672 9.38395V17.9181C6.05569 18.1624 6.79034 19.0493 6.79034 20.1086C6.79034 20.7227 6.54322 21.2782 6.14311 21.6865C6.43563 22.0212 6.7853 22.304 7.20221 22.5266C7.68301 22.7843 8.24619 22.9131 8.8951 22.9131H12.7415C12.9852 21.9275 13.8779 21.1963 14.9421 21.1963C16.0062 21.1963 16.8989 21.9275 17.1426 22.9131H18.6018L18.6506 19.2401H9.23636H9.22627C8.98588 19.2401 8.86652 19.0008 8.86652 18.5222V9.54794C8.86652 9.32705 8.92704 9.15302 9.0464 9.02417C9.16576 8.89532 9.28175 8.83006 9.39271 8.83006H18.6018V5.15869H17.1914C17.0552 6.27483 16.102 7.13829 14.9437 7.13829Z" fill="#F1652E"/>
<path d="M7.86257 0C6.8444 0 5.85879 0.220513 4.90747 0.663249C3.95443 1.10598 3.11623 1.70599 2.38945 2.46838C1.66268 3.23077 1.08331 4.13334 0.649644 5.17607C0.215977 6.21881 0 7.33334 0 8.51796V19.1522C0 20.3368 0.215977 21.4513 0.649644 22.494C1.08331 23.5368 1.66268 24.4393 2.38945 25.2017C3.11452 25.9641 3.95443 26.5658 4.90747 27.0069C5.85879 27.4496 6.8444 27.6701 7.86257 27.6701H18.5825V23.918H17.1187C16.9044 24.971 15.9703 25.7641 14.851 25.7641C13.7316 25.7641 12.7975 24.971 12.5832 23.918H8.31681C7.60031 23.918 6.95924 23.7778 6.39359 23.4958C5.82794 23.2137 5.35142 22.8479 4.96574 22.3949C4.92803 22.3505 4.89375 22.3026 4.85776 22.2564C4.65721 22.3129 4.44466 22.3453 4.22526 22.3453C2.94654 22.3453 1.91122 21.3129 1.91122 20.0376C1.91122 18.9197 2.70828 17.9881 3.76416 17.7761V8.51796C3.76416 7.95386 3.86701 7.38462 4.07441 6.81197C4.28182 6.23932 4.57836 5.7265 4.96574 5.27522C5.35142 4.82394 5.82794 4.45642 6.39359 4.17436C6.95924 3.89231 7.60031 3.75043 8.31681 3.75043H12.6569C12.9637 2.83419 13.8293 2.17265 14.851 2.17265C15.8726 2.17265 16.7382 2.83419 17.045 3.75043H18.5843V0H7.86257Z" fill="#F1652E"/>
<path d="M22.9231 22.15C22.8989 21.9236 22.7969 21.7473 22.6172 21.6211C22.4392 21.4949 22.2076 21.4319 21.9224 21.4319C21.7219 21.4319 21.5499 21.4621 21.4064 21.5226C21.263 21.5831 21.1532 21.6652 21.0772 21.7689C21.0011 21.8726 20.9622 21.991 20.9605 22.1241C20.9605 22.2347 20.9856 22.3306 21.0357 22.4119C21.0876 22.4931 21.1576 22.5622 21.2457 22.6193C21.3339 22.6746 21.4315 22.7212 21.5387 22.7593C21.6458 22.7973 21.7539 22.8293 21.8627 22.8552L22.3605 22.9796C22.561 23.0263 22.7537 23.0894 22.9387 23.1689C23.1253 23.2484 23.2921 23.3486 23.439 23.4696C23.5877 23.5906 23.7052 23.7367 23.7916 23.9078C23.878 24.0789 23.9213 24.2794 23.9213 24.5093C23.9213 24.8204 23.8417 25.0943 23.6827 25.3311C23.5237 25.5662 23.2938 25.7502 22.9931 25.8833C22.6941 26.0147 22.332 26.0804 21.9068 26.0804C21.4937 26.0804 21.1351 26.0164 20.8309 25.8885C20.5284 25.7606 20.2916 25.574 20.1205 25.3285C19.9511 25.0831 19.8595 24.7841 19.8457 24.4315H20.792C20.8058 24.6164 20.8629 24.7702 20.9631 24.893C21.0634 25.0157 21.1939 25.1073 21.3546 25.1678C21.5171 25.2283 21.6985 25.2585 21.899 25.2585C22.1082 25.2585 22.2914 25.2274 22.4487 25.1652C22.6077 25.1012 22.7321 25.0131 22.822 24.9007C22.9119 24.7867 22.9577 24.6536 22.9594 24.5015C22.9577 24.3632 22.9171 24.2491 22.8376 24.1593C22.758 24.0677 22.6466 23.9916 22.5031 23.9311C22.3614 23.8689 22.1955 23.8136 22.0053 23.7652L21.4013 23.6096C20.964 23.4973 20.6183 23.327 20.3642 23.0989C20.1119 22.869 19.9857 22.564 19.9857 22.1837C19.9857 21.8709 20.0704 21.5969 20.2398 21.3619C20.4109 21.1268 20.6434 20.9445 20.9372 20.8148C21.231 20.6835 21.5637 20.6178 21.9353 20.6178C22.3121 20.6178 22.6422 20.6835 22.9257 20.8148C23.2109 20.9445 23.4347 21.1251 23.5972 21.3567C23.7596 21.5866 23.8435 21.851 23.8487 22.15H22.9231ZM26.4743 26.0778C26.0768 26.0778 25.7354 25.9905 25.4502 25.8159C25.1668 25.6414 24.9481 25.4002 24.7943 25.0926C24.6422 24.7832 24.5662 24.4272 24.5662 24.0244C24.5662 23.62 24.6439 23.2631 24.7995 22.9537C24.955 22.6426 25.1746 22.4006 25.458 22.2278C25.7432 22.0532 26.0802 21.9659 26.4691 21.9659C26.7923 21.9659 27.0784 22.0256 27.3273 22.1448C27.5779 22.2624 27.7775 22.4291 27.9262 22.6452C28.0748 22.8595 28.1595 23.1101 28.1802 23.397H27.2832C27.2469 23.2052 27.1605 23.0453 27.0239 22.9174C26.8891 22.7878 26.7085 22.723 26.4821 22.723C26.2902 22.723 26.1217 22.7748 25.9765 22.8785C25.8313 22.9805 25.7181 23.1274 25.6369 23.3193C25.5574 23.5111 25.5176 23.741 25.5176 24.0089C25.5176 24.2803 25.5574 24.5136 25.6369 24.7089C25.7164 24.9025 25.8279 25.052 25.9713 25.1574C26.1165 25.2611 26.2868 25.313 26.4821 25.313C26.6204 25.313 26.7439 25.287 26.8528 25.2352C26.9634 25.1816 27.0559 25.1047 27.1302 25.0044C27.2046 24.9042 27.2555 24.7823 27.2832 24.6389H28.1802C28.1578 24.9206 28.0748 25.1704 27.9313 25.3881C27.7879 25.6042 27.5926 25.7736 27.3454 25.8963C27.0983 26.0173 26.8079 26.0778 26.4743 26.0778ZM28.9509 26V22.0178H29.8609V22.6815H29.9024C29.9749 22.4516 30.0994 22.2745 30.2757 22.15C30.4537 22.0238 30.6568 21.9607 30.8849 21.9607C30.9368 21.9607 30.9947 21.9633 31.0586 21.9685C31.1243 21.972 31.1788 21.978 31.222 21.9867V22.85C31.1822 22.8362 31.1191 22.8241 31.0327 22.8137C30.948 22.8016 30.8659 22.7956 30.7864 22.7956C30.6153 22.7956 30.4615 22.8327 30.3249 22.907C30.1901 22.9796 30.0838 23.0807 30.0061 23.2104C29.9283 23.34 29.8894 23.4895 29.8894 23.6589V26H28.9509ZM33.4445 26.0778C33.0452 26.0778 32.7004 25.9948 32.41 25.8289C32.1214 25.6612 31.8993 25.4244 31.7437 25.1185C31.5882 24.8109 31.5104 24.4488 31.5104 24.0322C31.5104 23.6226 31.5882 23.2631 31.7437 22.9537C31.901 22.6426 32.1205 22.4006 32.4023 22.2278C32.684 22.0532 33.015 21.9659 33.3952 21.9659C33.6406 21.9659 33.8723 22.0057 34.09 22.0852C34.3095 22.163 34.5031 22.284 34.6708 22.4482C34.8402 22.6124 34.9732 22.8215 35.07 23.0756C35.1668 23.3279 35.2152 23.6286 35.2152 23.9778V24.2656H31.9511V23.633H34.3156C34.3139 23.4532 34.275 23.2933 34.1989 23.1533C34.1229 23.0116 34.0166 22.9001 33.88 22.8189C33.7452 22.7377 33.5879 22.697 33.4082 22.697C33.2163 22.697 33.0478 22.7437 32.9026 22.837C32.7574 22.9286 32.6442 23.0496 32.563 23.2C32.4835 23.3486 32.4429 23.512 32.4411 23.69V24.2422C32.4411 24.4738 32.4835 24.6726 32.5682 24.8385C32.6529 25.0027 32.7713 25.1289 32.9234 25.217C33.0755 25.3035 33.2535 25.3467 33.4574 25.3467C33.594 25.3467 33.7176 25.3277 33.8282 25.2896C33.9388 25.2499 34.0347 25.192 34.116 25.1159C34.1972 25.0399 34.2585 24.9457 34.3 24.8333L35.1763 24.9319C35.121 25.1635 35.0156 25.3657 34.86 25.5385C34.7062 25.7096 34.5092 25.8427 34.2689 25.9378C34.0287 26.0311 33.7539 26.0778 33.4445 26.0778ZM37.7722 26.0778C37.3729 26.0778 37.0281 25.9948 36.7377 25.8289C36.4491 25.6612 36.227 25.4244 36.0714 25.1185C35.9159 24.8109 35.8381 24.4488 35.8381 24.0322C35.8381 23.6226 35.9159 23.2631 36.0714 22.9537C36.2287 22.6426 36.4482 22.4006 36.7299 22.2278C37.0117 22.0532 37.3426 21.9659 37.7229 21.9659C37.9683 21.9659 38.1999 22.0057 38.4177 22.0852C38.6372 22.163 38.8308 22.284 38.9984 22.4482C39.1678 22.6124 39.3009 22.8215 39.3977 23.0756C39.4945 23.3279 39.5429 23.6286 39.5429 23.9778V24.2656H36.2788V23.633H38.6433C38.6415 23.4532 38.6026 23.2933 38.5266 23.1533C38.4505 23.0116 38.3443 22.9001 38.2077 22.8189C38.0729 22.7377 37.9156 22.697 37.7359 22.697C37.544 22.697 37.3755 22.7437 37.2303 22.837C37.0851 22.9286 36.9719 23.0496 36.8907 23.2C36.8112 23.3486 36.7705 23.512 36.7688 23.69V24.2422C36.7688 24.4738 36.8112 24.6726 36.8959 24.8385C36.9805 25.0027 37.0989 25.1289 37.251 25.217C37.4031 25.3035 37.5812 25.3467 37.7851 25.3467C37.9217 25.3467 38.0452 25.3277 38.1559 25.2896C38.2665 25.2499 38.3624 25.192 38.4436 25.1159C38.5249 25.0399 38.5862 24.9457 38.6277 24.8333L39.504 24.9319C39.4487 25.1635 39.3433 25.3657 39.1877 25.5385C39.0339 25.7096 38.8368 25.8427 38.5966 25.9378C38.3563 26.0311 38.0815 26.0778 37.7722 26.0778ZM41.2754 23.6667V26H40.3369V22.0178H41.2339V22.6945H41.2806C41.3722 22.4715 41.5182 22.2943 41.7187 22.163C41.9209 22.0316 42.1707 21.9659 42.468 21.9659C42.7428 21.9659 42.9822 22.0247 43.1861 22.1422C43.3918 22.2598 43.5508 22.43 43.6632 22.653C43.7772 22.8759 43.8334 23.1464 43.8317 23.4644V26H42.8932V23.6096C42.8932 23.3435 42.824 23.1352 42.6858 22.9848C42.5492 22.8345 42.36 22.7593 42.118 22.7593C41.9538 22.7593 41.8077 22.7956 41.6798 22.8682C41.5537 22.939 41.4543 23.0419 41.3817 23.1767C41.3108 23.3115 41.2754 23.4748 41.2754 23.6667Z" fill="#F1652E"/>
<g clip-path="url(#clip0_7572_18)">
<path d="M20.1015 10.4979C20.6544 10.9787 21.0102 11.6037 21.1818 12.314C21.1882 12.3393 21.1945 12.3646 21.2011 12.3906C21.2949 12.813 21.2853 13.3368 21.1818 13.756C21.1759 13.7806 21.1759 13.7806 21.1699 13.8056C21.0683 14.2189 20.8871 14.5787 20.6682 14.9412C20.6849 14.9564 20.7016 14.9717 20.7188 14.9874C21.0406 15.2849 21.347 15.5984 21.6559 15.9091C21.7016 15.8866 21.7453 15.8634 21.7892 15.8375C21.8786 15.7997 21.9576 15.7912 22.0489 15.8236C22.1558 15.8752 22.2314 15.9411 22.3133 16.0261C22.3263 16.0393 22.3393 16.0524 22.3527 16.066C22.3938 16.1077 22.4348 16.1498 22.4756 16.1918C22.5166 16.2336 22.5576 16.2753 22.5986 16.317C22.624 16.3428 22.6493 16.3687 22.6746 16.3947C22.7475 16.4692 22.8232 16.5387 22.9021 16.6067C22.9579 16.6558 23.01 16.708 23.0621 16.7609C23.0783 16.7772 23.0783 16.7772 23.0948 16.7939C23.1402 16.8396 23.1855 16.8854 23.2308 16.9313C23.3416 17.0434 23.4517 17.1545 23.5718 17.2568C23.6603 17.3349 23.7428 17.4195 23.8263 17.5029C23.8452 17.5216 23.8641 17.5403 23.883 17.559C23.9009 17.5768 23.9188 17.5946 23.9372 17.613C23.9534 17.6291 23.9695 17.6452 23.9862 17.6618C24.053 17.7366 24.0718 17.792 24.0732 17.8918C24.0737 17.9099 24.0743 17.928 24.0749 17.9466C24.054 18.0757 23.9467 18.1694 23.8596 18.2609C23.847 18.2742 23.8344 18.2875 23.8215 18.3012C23.778 18.3468 23.7343 18.3922 23.6905 18.4375C23.6731 18.4555 23.6558 18.4735 23.638 18.492C23.5829 18.5491 23.5275 18.6056 23.4719 18.6622C23.4543 18.6804 23.4367 18.6986 23.4185 18.7174C23.4017 18.7343 23.3849 18.7513 23.3675 18.7688C23.3527 18.784 23.3378 18.7991 23.3225 18.8148C23.2578 18.8666 23.1936 18.89 23.1108 18.8941C23.0968 18.8925 23.0827 18.891 23.0682 18.8893C23.0542 18.8881 23.0401 18.8868 23.0256 18.8855C22.913 18.8528 22.8313 18.7681 22.7511 18.6865C22.7361 18.6714 22.7361 18.6714 22.7209 18.6559C22.6892 18.624 22.6577 18.5918 22.6263 18.5597C22.5848 18.5175 22.5433 18.4754 22.5017 18.4334C22.4866 18.4181 22.4866 18.4181 22.4711 18.4024C22.4184 18.3496 22.365 18.2986 22.3082 18.2502C22.1811 18.1419 22.0664 18.0194 21.9491 17.9007C21.8079 17.7563 21.8079 17.7563 21.6588 17.6204C21.5407 17.5196 21.4322 17.4084 21.3224 17.2988C21.2829 17.2595 21.2431 17.2204 21.2034 17.1813C21.1781 17.1562 21.1529 17.131 21.1276 17.1058C21.1158 17.0943 21.104 17.0827 21.0918 17.0707C21.0064 16.9849 20.9682 16.923 20.9583 16.7992C20.96 16.7211 20.9864 16.669 21.0238 16.6004C21.0318 16.5233 21.0318 16.5233 20.9923 16.4802C20.9776 16.4655 20.9629 16.4509 20.9477 16.4357C20.9311 16.419 20.9144 16.4023 20.8973 16.385C20.8791 16.3671 20.8609 16.3492 20.8421 16.3307C20.8234 16.312 20.8046 16.2932 20.7859 16.2745C20.7465 16.2352 20.707 16.196 20.6674 16.1569C20.6168 16.107 20.5666 16.0569 20.5164 16.0067C20.4776 15.9679 20.4387 15.9293 20.3998 15.8907C20.3723 15.8633 20.3448 15.8359 20.3173 15.8085C20.2346 15.727 20.1562 15.652 20.0559 15.593C20.0481 15.6007 20.0404 15.6084 20.0324 15.6163C19.8972 15.7428 19.7396 15.8336 19.5818 15.9288C19.522 15.8731 19.4803 15.8175 19.4386 15.7474C19.3796 15.6518 19.3135 15.571 19.2362 15.4899C19.2065 15.4548 19.2065 15.4548 19.2065 15.4152C19.2398 15.3941 19.2742 15.3747 19.309 15.356C19.6682 15.1507 19.9743 14.8572 20.1941 14.5066C20.2018 14.4944 20.2095 14.4821 20.2174 14.4695C20.4613 14.0737 20.6186 13.6114 20.6287 13.1436C20.6295 13.1274 20.6302 13.1112 20.631 13.0945C20.6487 12.4464 20.4176 11.7796 19.9966 11.2868C19.9881 11.2768 19.9796 11.2667 19.9708 11.2564C19.5046 10.7109 18.8343 10.3788 18.1201 10.3189C17.3882 10.2798 16.6732 10.4957 16.1197 10.9844C16.0883 11.0126 16.0573 11.041 16.0262 11.0695C16.0117 11.0824 15.9972 11.0953 15.9822 11.1086C15.4748 11.5827 15.231 12.2792 15.1926 12.9576C15.1816 13.7146 15.4645 14.4015 15.9849 14.946C16.125 15.0893 16.2742 15.2061 16.441 15.3165C16.4598 15.3292 16.4786 15.3418 16.4979 15.3549C16.538 15.3819 16.5783 15.4086 16.6188 15.435C16.6033 15.4517 16.5879 15.4684 16.5719 15.4856C16.4964 15.573 16.4348 15.6692 16.3722 15.766C16.3641 15.7785 16.356 15.791 16.3476 15.8038C16.3404 15.8151 16.3332 15.8263 16.3257 15.8378C16.3011 15.8718 16.2739 15.9 16.2435 15.9288C16.0366 15.8064 15.8467 15.6781 15.6707 15.514C15.6581 15.5024 15.6456 15.4907 15.6327 15.4787C15.3457 15.2083 15.1199 14.9165 14.9398 14.5659C14.9294 14.546 14.9294 14.546 14.9188 14.5257C14.804 14.3036 14.7245 14.0772 14.6632 13.835C14.6591 13.8191 14.6549 13.8032 14.6506 13.7869C14.5335 13.3263 14.527 12.7563 14.6435 12.2942C14.647 12.2802 14.6505 12.2662 14.6541 12.2518C14.6797 12.1527 14.7097 12.0555 14.7423 11.9584C14.7465 11.9455 14.7508 11.9326 14.7551 11.9192C14.9707 11.2715 15.4013 10.7221 15.9472 10.3189C15.9587 10.3104 15.9701 10.302 15.9819 10.2932C17.2163 9.39264 18.9568 9.5234 20.1015 10.4979Z" fill="#F1652E"/>
<path d="M19.4546 11.1346C19.9599 11.5674 20.2816 12.1419 20.3447 12.8078C20.3945 13.5146 20.1671 14.1227 19.7318 14.6713C19.7214 14.6822 19.711 14.693 19.7003 14.7041C19.6873 14.7041 19.6742 14.7041 19.6608 14.7041C19.6536 14.6826 19.6464 14.6611 19.639 14.639C19.4716 14.1457 19.2111 13.7579 18.7454 13.5025C18.2793 13.2793 17.7932 13.2423 17.3041 13.4085C17.0768 13.4906 16.8787 13.6155 16.6978 13.7757C16.6779 13.7929 16.6779 13.7929 16.6575 13.8104C16.4018 14.0462 16.254 14.3735 16.1645 14.7041C16.1514 14.7041 16.1384 14.7041 16.125 14.7041C16.0894 14.6642 16.0564 14.6242 16.0237 14.5819C16.014 14.5693 16.0043 14.5568 15.9943 14.5439C15.5818 14.003 15.4069 13.3558 15.4966 12.6807C15.5903 12.0433 15.9266 11.4576 16.4438 11.0683C17.3381 10.4242 18.5948 10.4226 19.4546 11.1346ZM17.3694 11.4448C17.3568 11.4536 17.3443 11.4623 17.3313 11.4712C17.1617 11.6016 17.0557 11.811 17.0139 12.0177C16.9886 12.2927 17.0415 12.5227 17.2122 12.7408C17.366 12.9198 17.5443 13.0416 17.7847 13.0692C17.9686 13.0825 18.1308 13.0697 18.2978 12.9856C18.3146 12.9774 18.3314 12.9693 18.3487 12.9609C18.5594 12.8473 18.6915 12.6752 18.7719 12.4523C18.7792 12.4326 18.7792 12.4326 18.7866 12.4124C18.8512 12.2018 18.8165 11.9799 18.7324 11.7807C18.6974 11.7174 18.6579 11.6602 18.6139 11.6029C18.5968 11.5772 18.5968 11.5772 18.5793 11.551C18.4205 11.3834 18.2024 11.282 17.9724 11.2631C17.7436 11.2589 17.5564 11.3126 17.3694 11.4448Z" fill="#F1652E"/>
<path d="M18.909 15.5437C19.1947 15.78 19.3972 16.1335 19.4436 16.5017C19.4798 16.9401 19.4008 17.3457 19.1263 17.698C19.1008 17.7276 19.0749 17.7569 19.0485 17.7857C19.0374 17.7982 19.0262 17.8107 19.0148 17.8235C18.734 18.122 18.3271 18.2705 17.9238 18.2845C17.4889 18.2785 17.1164 18.119 16.8003 17.8203C16.6331 17.6457 16.5213 17.4397 16.4411 17.2129C16.4348 17.1961 16.4284 17.1793 16.4219 17.162C16.3086 16.8025 16.3635 16.3731 16.5263 16.0388C16.5861 15.9261 16.6547 15.8281 16.7374 15.7314C16.7524 15.7114 16.7675 15.6914 16.7831 15.6709C17.3458 15.0558 18.2674 15.0698 18.909 15.5437ZM18.4605 16.1272C18.4467 16.1398 18.433 16.1524 18.4189 16.1654C18.3513 16.2299 18.2847 16.2952 18.2189 16.3615C18.2046 16.3758 18.1904 16.3901 18.1757 16.4048C18.1308 16.4498 18.0859 16.4949 18.0411 16.54C18.0104 16.5708 17.9797 16.6016 17.949 16.6323C17.8743 16.7073 17.7996 16.7823 17.725 16.8573C17.6617 16.8272 17.6197 16.7959 17.5706 16.7455C17.5567 16.7314 17.5429 16.7174 17.5287 16.7029C17.5144 16.6883 17.5002 16.6736 17.4855 16.6585C17.4571 16.6295 17.4287 16.6004 17.4002 16.5714C17.3877 16.5585 17.3751 16.5456 17.3622 16.5324C17.3045 16.4775 17.2528 16.4743 17.174 16.4749C17.1005 16.4874 17.0652 16.5282 17.0139 16.5808C16.9817 16.6452 16.9849 16.687 16.9942 16.7585C17.017 16.7935 17.017 16.7935 17.0492 16.827C17.0617 16.8407 17.0743 16.8545 17.0873 16.8686C17.1096 16.8924 17.1096 16.8924 17.1324 16.9166C17.15 16.9353 17.1676 16.9541 17.1857 16.9734C17.2355 17.0262 17.2859 17.0782 17.3367 17.1299C17.3578 17.1516 17.3788 17.1734 17.3996 17.1953C17.4302 17.2274 17.4611 17.259 17.4922 17.2906C17.5014 17.3003 17.5105 17.3101 17.5199 17.3202C17.5837 17.3837 17.6382 17.4091 17.7263 17.414C17.8715 17.4003 17.9909 17.2292 18.087 17.1327C18.1066 17.1131 18.1262 17.0935 18.1458 17.0739C18.1868 17.033 18.2277 16.9921 18.2685 16.9511C18.3207 16.8986 18.3731 16.8464 18.4255 16.7942C18.466 16.7538 18.5064 16.7134 18.5468 16.6729C18.5661 16.6536 18.5854 16.6344 18.6047 16.6151C18.6317 16.5882 18.6586 16.5611 18.6855 16.534C18.7008 16.5187 18.7161 16.5034 18.7319 16.4876C18.7883 16.424 18.8272 16.3705 18.8399 16.2857C18.8289 16.2087 18.8003 16.1671 18.7522 16.1067C18.6904 16.0655 18.6515 16.0552 18.5776 16.0572C18.5244 16.0696 18.5005 16.0903 18.4605 16.1272Z" fill="#F1652E"/>
</g>
<defs>
<clipPath id="clip0_7572_18">
<rect width="10.1136" height="10.1136" fill="white" transform="translate(14.2682 9.23248)"/>
</clipPath>
</defs>
</svg>
