<svg width="393" height="1154" viewBox="0 0 393 1154" fill="none" xmlns="http://www.w3.org/2000/svg">
<g opacity="0.09">
<path d="M108.979 169.843C106.733 169.843 104.884 168.165 104.614 166.004H97.2494C95.9943 166.004 94.8989 166.254 93.9665 166.753C93.0342 167.253 92.2615 167.896 91.6552 168.681C91.0455 169.466 90.5891 170.349 90.2827 171.332C89.9763 172.315 89.8263 173.269 89.8263 174.197V190.747C91.7432 191.221 93.1678 192.941 93.1678 194.995C93.1678 196.186 92.6886 197.263 91.9127 198.055C92.48 198.704 93.158 199.252 93.9665 199.684C94.8989 200.183 95.991 200.433 97.2494 200.433H104.708C105.181 198.522 106.912 197.104 108.976 197.104C111.039 197.104 112.77 198.522 113.243 200.433H116.073L116.167 193.311H97.9112H97.8916C97.4254 193.311 97.194 192.846 97.194 191.918V174.515C97.194 174.087 97.3113 173.75 97.5428 173.5C97.7742 173.25 97.9992 173.123 98.2143 173.123H116.073V166.004H113.338C113.074 168.168 111.225 169.843 108.979 169.843Z" fill="#F1652E"/>
<path d="M95.2472 156C93.2727 156 91.3614 156.428 89.5166 157.286C87.6685 158.145 86.043 159.308 84.6336 160.787C83.2243 162.265 82.1008 164.015 81.2598 166.037C80.4188 168.06 80 170.221 80 172.518V193.14C80 195.437 80.4188 197.599 81.2598 199.621C82.1008 201.643 83.2243 203.393 84.6336 204.871C86.0397 206.35 87.6685 207.517 89.5166 208.372C91.3614 209.23 93.2727 209.658 95.2472 209.658H116.035V202.382H113.197C112.781 204.424 110.97 205.962 108.799 205.962C106.629 205.962 104.817 204.424 104.401 202.382H96.128C94.7386 202.382 93.4954 202.11 92.3985 201.563C91.3016 201.016 90.3775 200.307 89.6296 199.428C89.5565 199.342 89.49 199.249 89.4202 199.16C89.0313 199.269 88.6191 199.332 88.1936 199.332C85.7139 199.332 83.7063 197.33 83.7063 194.857C83.7063 192.689 85.2519 190.883 87.2995 190.472V172.518C87.2995 171.424 87.4989 170.32 87.9011 169.21C88.3033 168.099 88.8784 167.105 89.6296 166.23C90.3775 165.355 91.3016 164.642 92.3985 164.095C93.4954 163.548 94.7386 163.273 96.128 163.273H104.544C105.139 161.496 106.818 160.213 108.799 160.213C110.78 160.213 112.459 161.496 113.054 163.273H116.039V156H95.2472Z" fill="#F1652E"/>
</g>
<g opacity="0.09">
<path d="M47.979 306.843C45.7329 306.843 43.8844 305.165 43.6138 303.004H36.2494C34.9943 303.004 33.899 303.254 32.9666 303.753C32.0342 304.253 31.2616 304.896 30.6552 305.681C30.0456 306.466 29.5892 307.349 29.2828 308.332C28.9763 309.315 28.8264 310.269 28.8264 311.197V327.747C30.7433 328.221 32.1679 329.941 32.1679 331.995C32.1679 333.186 31.6887 334.263 30.9128 335.055C31.48 335.704 32.1581 336.252 32.9666 336.684C33.899 337.183 34.9911 337.433 36.2494 337.433H43.7084C44.1811 335.522 45.9122 334.104 47.9758 334.104C50.0394 334.104 51.7704 335.522 52.2431 337.433H55.0728L55.1674 330.311H36.9112H36.8917C36.4255 330.311 36.194 329.846 36.194 328.918V311.515C36.194 311.087 36.3114 310.75 36.5428 310.5C36.7743 310.25 36.9992 310.123 37.2144 310.123H55.0728V303.004H52.3377C52.0736 305.168 50.2252 306.843 47.979 306.843Z" fill="#F1652E"/>
<path d="M34.2472 293C32.2727 293 30.3614 293.428 28.5166 294.286C26.6685 295.145 25.043 296.308 23.6336 297.787C22.2243 299.265 21.1008 301.015 20.2598 303.037C19.4188 305.06 19 307.221 19 309.518V330.14C19 332.437 19.4188 334.599 20.2598 336.621C21.1008 338.643 22.2243 340.393 23.6336 341.871C25.0397 343.35 26.6685 344.517 28.5166 345.372C30.3614 346.23 32.2727 346.658 34.2472 346.658H55.0354V339.382H52.1967C51.7812 341.424 49.9696 342.962 47.7991 342.962C45.6285 342.962 43.8169 341.424 43.4014 339.382H35.128C33.7386 339.382 32.4954 339.11 31.3985 338.563C30.3016 338.016 29.3775 337.307 28.6296 336.428C28.5565 336.342 28.49 336.249 28.4202 336.16C28.0313 336.269 27.6191 336.332 27.1936 336.332C24.7139 336.332 22.7063 334.33 22.7063 331.857C22.7063 329.689 24.2519 327.883 26.2995 327.472V309.518C26.2995 308.424 26.4989 307.32 26.9011 306.21C27.3033 305.099 27.8784 304.105 28.6296 303.23C29.3775 302.355 30.3016 301.642 31.3985 301.095C32.4954 300.548 33.7386 300.273 35.128 300.273H43.5444C44.1394 298.496 45.818 297.213 47.7991 297.213C49.7802 297.213 51.4588 298.496 52.0538 300.273H55.0387V293H34.2472Z" fill="#F1652E"/>
</g>
<g opacity="0.09">
<path d="M120.979 478.843C118.733 478.843 116.884 477.165 116.614 475.004H109.249C107.994 475.004 106.899 475.254 105.967 475.753C105.034 476.253 104.262 476.896 103.655 477.681C103.046 478.466 102.589 479.349 102.283 480.332C101.976 481.315 101.826 482.269 101.826 483.197V499.747C103.743 500.221 105.168 501.941 105.168 503.995C105.168 505.186 104.689 506.263 103.913 507.055C104.48 507.704 105.158 508.252 105.967 508.684C106.899 509.183 107.991 509.433 109.249 509.433H116.708C117.181 507.522 118.912 506.104 120.976 506.104C123.039 506.104 124.77 507.522 125.243 509.433H128.073L128.167 502.311H109.911H109.892C109.425 502.311 109.194 501.846 109.194 500.918V483.515C109.194 483.087 109.311 482.75 109.543 482.5C109.774 482.25 109.999 482.123 110.214 482.123H128.073V475.004H125.338C125.074 477.168 123.225 478.843 120.979 478.843Z" fill="#F1652E"/>
<path d="M107.247 465C105.273 465 103.361 465.428 101.517 466.286C99.6685 467.145 98.043 468.308 96.6336 469.787C95.2243 471.265 94.1008 473.015 93.2598 475.037C92.4188 477.06 92 479.221 92 481.518V502.14C92 504.437 92.4188 506.599 93.2598 508.621C94.1008 510.643 95.2243 512.393 96.6336 513.871C98.0397 515.35 99.6685 516.517 101.517 517.372C103.361 518.23 105.273 518.658 107.247 518.658H128.035V511.382H125.197C124.781 513.424 122.97 514.962 120.799 514.962C118.629 514.962 116.817 513.424 116.401 511.382H108.128C106.739 511.382 105.495 511.11 104.398 510.563C103.302 510.016 102.378 509.307 101.63 508.428C101.556 508.342 101.49 508.249 101.42 508.16C101.031 508.269 100.619 508.332 100.194 508.332C97.7139 508.332 95.7063 506.33 95.7063 503.857C95.7063 501.689 97.2519 499.883 99.2995 499.472V481.518C99.2995 480.424 99.4989 479.32 99.9011 478.21C100.303 477.099 100.878 476.105 101.63 475.23C102.378 474.355 103.302 473.642 104.398 473.095C105.495 472.548 106.739 472.273 108.128 472.273H116.544C117.139 470.496 118.818 469.213 120.799 469.213C122.78 469.213 124.459 470.496 125.054 472.273H128.039V465H107.247Z" fill="#F1652E"/>
</g>
<g opacity="0.09">
<path d="M28.979 639.843C26.7329 639.843 24.8844 638.165 24.6138 636.004H17.2494C15.9943 636.004 14.899 636.254 13.9666 636.753C13.0342 637.253 12.2616 637.896 11.6552 638.681C11.0456 639.466 10.5892 640.349 10.2828 641.332C9.97631 642.315 9.82635 643.269 9.82635 644.197V660.747C11.7433 661.221 13.1679 662.941 13.1679 664.995C13.1679 666.186 12.6887 667.263 11.9128 668.055C12.48 668.704 13.1581 669.252 13.9666 669.684C14.899 670.183 15.9911 670.433 17.2494 670.433H24.7084C25.1811 668.522 26.9122 667.104 28.9758 667.104C31.0394 667.104 32.7704 668.522 33.2431 670.433H36.0728L36.1674 663.311H17.9112H17.8917C17.4255 663.311 17.194 662.846 17.194 661.918V644.515C17.194 644.087 17.3114 643.75 17.5428 643.5C17.7743 643.25 17.9992 643.123 18.2144 643.123H36.0728V636.004H33.3377C33.0736 638.168 31.2252 639.843 28.979 639.843Z" fill="#F1652E"/>
<path d="M15.2472 626C13.2727 626 11.3614 626.428 9.51659 627.286C7.66845 628.145 6.04302 629.308 4.63365 630.787C3.22427 632.265 2.10076 634.015 1.25979 636.037C0.418823 638.06 0 640.221 0 642.518L0 663.14C0 665.437 0.418823 667.599 1.25979 669.621C2.10076 671.643 3.22427 673.393 4.63365 674.871C6.03969 676.35 7.66845 677.517 9.51659 678.372C11.3614 679.23 13.2727 679.658 15.2472 679.658H36.0354V672.382H33.1967C32.7812 674.424 30.9696 675.962 28.7991 675.962C26.6285 675.962 24.8169 674.424 24.4014 672.382H16.128C14.7386 672.382 13.4954 672.11 12.3985 671.563C11.3016 671.016 10.3775 670.307 9.62961 669.428C9.55648 669.342 9.49 669.249 9.42019 669.16C9.03129 669.269 8.61911 669.332 8.19364 669.332C5.71395 669.332 3.70625 667.33 3.70625 664.857C3.70625 662.689 5.25191 660.883 7.29949 660.472V642.518C7.29949 641.424 7.49893 640.32 7.90113 639.21C8.30333 638.099 8.87838 637.105 9.62961 636.23C10.3775 635.355 11.3016 634.642 12.3985 634.095C13.4954 633.548 14.7386 633.273 16.128 633.273H24.5444C25.1394 631.496 26.818 630.213 28.7991 630.213C30.7802 630.213 32.4588 631.496 33.0538 633.273H36.0387V626H15.2472Z" fill="#F1652E"/>
</g>
<g opacity="0.09">
<path d="M38.979 953.843C36.7329 953.843 34.8844 952.165 34.6138 950.004H27.2494C25.9943 950.004 24.899 950.254 23.9666 950.753C23.0342 951.253 22.2616 951.896 21.6552 952.681C21.0456 953.466 20.5892 954.349 20.2828 955.332C19.9763 956.315 19.8264 957.269 19.8264 958.197V974.747C21.7433 975.221 23.1679 976.941 23.1679 978.995C23.1679 980.186 22.6887 981.263 21.9128 982.055C22.48 982.704 23.1581 983.252 23.9666 983.684C24.899 984.183 25.9911 984.433 27.2494 984.433H34.7084C35.1811 982.522 36.9122 981.104 38.9758 981.104C41.0394 981.104 42.7704 982.522 43.2431 984.433H46.0728L46.1674 977.311H27.9112H27.8917C27.4255 977.311 27.194 976.846 27.194 975.918V958.515C27.194 958.087 27.3114 957.75 27.5428 957.5C27.7743 957.25 27.9992 957.123 28.2144 957.123H46.0728V950.004H43.3377C43.0736 952.168 41.2252 953.843 38.979 953.843Z" fill="#F1652E"/>
<path d="M25.2472 940C23.2727 940 21.3614 940.428 19.5166 941.286C17.6685 942.145 16.043 943.308 14.6336 944.787C13.2243 946.265 12.1008 948.015 11.2598 950.037C10.4188 952.06 10 954.221 10 956.518V977.14C10 979.437 10.4188 981.599 11.2598 983.621C12.1008 985.643 13.2243 987.393 14.6336 988.871C16.0397 990.35 17.6685 991.517 19.5166 992.372C21.3614 993.23 23.2727 993.658 25.2472 993.658H46.0354V986.382H43.1967C42.7812 988.424 40.9696 989.962 38.7991 989.962C36.6285 989.962 34.8169 988.424 34.4014 986.382H26.128C24.7386 986.382 23.4954 986.11 22.3985 985.563C21.3016 985.016 20.3775 984.307 19.6296 983.428C19.5565 983.342 19.49 983.249 19.4202 983.16C19.0313 983.269 18.6191 983.332 18.1936 983.332C15.7139 983.332 13.7063 981.33 13.7063 978.857C13.7063 976.689 15.2519 974.883 17.2995 974.472V956.518C17.2995 955.424 17.4989 954.32 17.9011 953.21C18.3033 952.099 18.8784 951.105 19.6296 950.23C20.3775 949.355 21.3016 948.642 22.3985 948.095C23.4954 947.548 24.7386 947.273 26.128 947.273H34.5444C35.1394 945.496 36.818 944.213 38.7991 944.213C40.7802 944.213 42.4588 945.496 43.0538 947.273H46.0387V940H25.2472Z" fill="#F1652E"/>
</g>
<g opacity="0.09">
<path d="M108.979 13.8427C106.733 13.8427 104.884 12.165 104.614 10.0038H97.2494C95.9943 10.0038 94.8989 10.2537 93.9665 10.7534C93.0342 11.2531 92.2615 11.8957 91.6552 12.6809C91.0455 13.4662 90.5891 14.3489 90.2827 15.3321C89.9763 16.3154 89.8263 17.2694 89.8263 18.1975V34.747C91.7432 35.2208 93.1678 36.9406 93.1678 38.9947C93.1678 40.1856 92.6886 41.263 91.9127 42.0547C92.48 42.7037 93.158 43.2522 93.9665 43.6837C94.8989 44.1835 95.991 44.4333 97.2494 44.4333H104.708C105.181 42.522 106.912 41.104 108.976 41.104C111.039 41.104 112.77 42.522 113.243 44.4333H116.073L116.167 37.3105H97.9112H97.8916C97.4254 37.3105 97.194 36.8465 97.194 35.9184V18.5155C97.194 18.0871 97.3113 17.7496 97.5428 17.4998C97.7742 17.2499 97.9992 17.1234 98.2143 17.1234H116.073V10.0038H113.338C113.074 12.1682 111.225 13.8427 108.979 13.8427Z" fill="#F1652E"/>
<path d="M95.2472 0C93.2727 0 91.3614 0.427621 89.5166 1.28618C87.6685 2.14473 86.043 3.30826 84.6336 4.7867C83.2243 6.26514 82.1008 8.0154 81.2598 10.0375C80.4188 12.0596 80 14.2209 80 16.5181V37.14C80 39.4372 80.4188 41.5985 81.2598 43.6206C82.1008 45.6427 83.2243 47.393 84.6336 48.8714C86.0397 50.3498 87.6685 51.5167 89.5166 52.3719C91.3614 53.2305 93.2727 53.6581 95.2472 53.6581H116.035V46.3819H113.197C112.781 48.4239 110.97 49.962 108.799 49.962C106.629 49.962 104.817 48.4239 104.401 46.3819H96.128C94.7386 46.3819 93.4954 46.1101 92.3985 45.5631C91.3016 45.0162 90.3775 44.3068 89.6296 43.4284C89.5565 43.3422 89.49 43.2494 89.4202 43.1599C89.0313 43.2692 88.6191 43.3322 88.1936 43.3322C85.7139 43.3322 83.7063 41.33 83.7063 38.8571C83.7063 36.6892 85.2519 34.8826 87.2995 34.4715V16.5181C87.2995 15.4242 87.4989 14.3203 87.9011 13.2098C88.3033 12.0993 88.8784 11.1049 89.6296 10.2297C90.3775 9.35462 91.3016 8.64191 92.3985 8.09496C93.4954 7.548 94.7386 7.27287 96.128 7.27287H104.544C105.139 5.49609 106.818 4.21322 108.799 4.21322C110.78 4.21322 112.459 5.49609 113.054 7.27287H116.039V0L95.2472 0Z" fill="#F1652E"/>
</g>
<g opacity="0.09">
<path d="M130.979 807.843C128.733 807.843 126.884 806.165 126.614 804.004H119.249C117.994 804.004 116.899 804.254 115.967 804.753C115.034 805.253 114.262 805.896 113.655 806.681C113.046 807.466 112.589 808.349 112.283 809.332C111.976 810.315 111.826 811.269 111.826 812.197V828.747C113.743 829.221 115.168 830.941 115.168 832.995C115.168 834.186 114.689 835.263 113.913 836.055C114.48 836.704 115.158 837.252 115.967 837.684C116.899 838.183 117.991 838.433 119.249 838.433H126.708C127.181 836.522 128.912 835.104 130.976 835.104C133.039 835.104 134.77 836.522 135.243 838.433H138.073L138.167 831.311H119.911H119.892C119.425 831.311 119.194 830.846 119.194 829.918V812.515C119.194 812.087 119.311 811.75 119.543 811.5C119.774 811.25 119.999 811.123 120.214 811.123H138.073V804.004H135.338C135.074 806.168 133.225 807.843 130.979 807.843Z" fill="#F1652E"/>
<path d="M117.247 794C115.273 794 113.361 794.428 111.517 795.286C109.668 796.145 108.043 797.308 106.634 798.787C105.224 800.265 104.101 802.015 103.26 804.037C102.419 806.06 102 808.221 102 810.518V831.14C102 833.437 102.419 835.599 103.26 837.621C104.101 839.643 105.224 841.393 106.634 842.871C108.04 844.35 109.668 845.517 111.517 846.372C113.361 847.23 115.273 847.658 117.247 847.658H138.035V840.382H135.197C134.781 842.424 132.97 843.962 130.799 843.962C128.629 843.962 126.817 842.424 126.401 840.382H118.128C116.739 840.382 115.495 840.11 114.398 839.563C113.302 839.016 112.378 838.307 111.63 837.428C111.556 837.342 111.49 837.249 111.42 837.16C111.031 837.269 110.619 837.332 110.194 837.332C107.714 837.332 105.706 835.33 105.706 832.857C105.706 830.689 107.252 828.883 109.299 828.472V810.518C109.299 809.424 109.499 808.32 109.901 807.21C110.303 806.099 110.878 805.105 111.63 804.23C112.378 803.355 113.302 802.642 114.398 802.095C115.495 801.548 116.739 801.273 118.128 801.273H126.544C127.139 799.496 128.818 798.213 130.799 798.213C132.78 798.213 134.459 799.496 135.054 801.273H138.039V794H117.247Z" fill="#F1652E"/>
</g>
<g opacity="0.09">
<path d="M108.979 1111.84C106.733 1111.84 104.884 1110.16 104.614 1108H97.2494C95.9943 1108 94.8989 1108.25 93.9665 1108.75C93.0342 1109.25 92.2615 1109.9 91.6552 1110.68C91.0455 1111.47 90.5891 1112.35 90.2827 1113.33C89.9763 1114.32 89.8263 1115.27 89.8263 1116.2V1132.75C91.7432 1133.22 93.1678 1134.94 93.1678 1136.99C93.1678 1138.19 92.6886 1139.26 91.9127 1140.05C92.48 1140.7 93.158 1141.25 93.9665 1141.68C94.8989 1142.18 95.991 1142.43 97.2494 1142.43H104.708C105.181 1140.52 106.912 1139.1 108.976 1139.1C111.039 1139.1 112.77 1140.52 113.243 1142.43H116.073L116.167 1135.31H97.9112H97.8916C97.4254 1135.31 97.194 1134.85 97.194 1133.92V1116.52C97.194 1116.09 97.3113 1115.75 97.5428 1115.5C97.7742 1115.25 97.9992 1115.12 98.2143 1115.12H116.073V1108H113.338C113.074 1110.17 111.225 1111.84 108.979 1111.84Z" fill="#F1652E"/>
<path d="M95.2472 1098C93.2727 1098 91.3614 1098.43 89.5166 1099.29C87.6685 1100.14 86.043 1101.31 84.6336 1102.79C83.2243 1104.27 82.1008 1106.02 81.2598 1108.04C80.4188 1110.06 80 1112.22 80 1114.52V1135.14C80 1137.44 80.4188 1139.6 81.2598 1141.62C82.1008 1143.64 83.2243 1145.39 84.6336 1146.87C86.0397 1148.35 87.6685 1149.52 89.5166 1150.37C91.3614 1151.23 93.2727 1151.66 95.2472 1151.66H116.035V1144.38H113.197C112.781 1146.42 110.97 1147.96 108.799 1147.96C106.629 1147.96 104.817 1146.42 104.401 1144.38H96.128C94.7386 1144.38 93.4954 1144.11 92.3985 1143.56C91.3016 1143.02 90.3775 1142.31 89.6296 1141.43C89.5565 1141.34 89.49 1141.25 89.4202 1141.16C89.0313 1141.27 88.6191 1141.33 88.1936 1141.33C85.7139 1141.33 83.7063 1139.33 83.7063 1136.86C83.7063 1134.69 85.2519 1132.88 87.2995 1132.47V1114.52C87.2995 1113.42 87.4989 1112.32 87.9011 1111.21C88.3033 1110.1 88.8784 1109.1 89.6296 1108.23C90.3775 1107.35 91.3016 1106.64 92.3985 1106.09C93.4954 1105.55 94.7386 1105.27 96.128 1105.27H104.544C105.139 1103.5 106.818 1102.21 108.799 1102.21C110.78 1102.21 112.459 1103.5 113.054 1105.27H116.039V1098H95.2472Z" fill="#F1652E"/>
</g>
<g opacity="0.09">
<path d="M362.979 171.843C360.733 171.843 358.884 170.165 358.614 168.004H351.249C349.994 168.004 348.899 168.254 347.967 168.753C347.034 169.253 346.262 169.896 345.655 170.681C345.046 171.466 344.589 172.349 344.283 173.332C343.976 174.315 343.826 175.269 343.826 176.197V192.747C345.743 193.221 347.168 194.941 347.168 196.995C347.168 198.186 346.689 199.263 345.913 200.055C346.48 200.704 347.158 201.252 347.967 201.684C348.899 202.183 349.991 202.433 351.249 202.433H358.708C359.181 200.522 360.912 199.104 362.976 199.104C365.039 199.104 366.77 200.522 367.243 202.433H370.073L370.167 195.311H351.911H351.892C351.425 195.311 351.194 194.846 351.194 193.918V176.515C351.194 176.087 351.311 175.75 351.543 175.5C351.774 175.25 351.999 175.123 352.214 175.123H370.073V168.004H367.338C367.074 170.168 365.225 171.843 362.979 171.843Z" fill="#F1652E"/>
<path d="M349.247 158C347.273 158 345.361 158.428 343.517 159.286C341.668 160.145 340.043 161.308 338.634 162.787C337.224 164.265 336.101 166.015 335.26 168.037C334.419 170.06 334 172.221 334 174.518V195.14C334 197.437 334.419 199.599 335.26 201.621C336.101 203.643 337.224 205.393 338.634 206.871C340.04 208.35 341.668 209.517 343.517 210.372C345.361 211.23 347.273 211.658 349.247 211.658H370.035V204.382H367.197C366.781 206.424 364.97 207.962 362.799 207.962C360.629 207.962 358.817 206.424 358.401 204.382H350.128C348.739 204.382 347.495 204.11 346.398 203.563C345.302 203.016 344.378 202.307 343.63 201.428C343.556 201.342 343.49 201.249 343.42 201.16C343.031 201.269 342.619 201.332 342.194 201.332C339.714 201.332 337.706 199.33 337.706 196.857C337.706 194.689 339.252 192.883 341.299 192.472V174.518C341.299 173.424 341.499 172.32 341.901 171.21C342.303 170.099 342.878 169.105 343.63 168.23C344.378 167.355 345.302 166.642 346.398 166.095C347.495 165.548 348.739 165.273 350.128 165.273H358.544C359.139 163.496 360.818 162.213 362.799 162.213C364.78 162.213 366.459 163.496 367.054 165.273H370.039V158H349.247Z" fill="#F1652E"/>
</g>
<g opacity="0.09">
<path d="M301.979 308.843C299.733 308.843 297.884 307.165 297.614 305.004H290.249C288.994 305.004 287.899 305.254 286.967 305.753C286.034 306.253 285.262 306.896 284.655 307.681C284.046 308.466 283.589 309.349 283.283 310.332C282.976 311.315 282.826 312.269 282.826 313.197V329.747C284.743 330.221 286.168 331.941 286.168 333.995C286.168 335.186 285.689 336.263 284.913 337.055C285.48 337.704 286.158 338.252 286.967 338.684C287.899 339.183 288.991 339.433 290.249 339.433H297.708C298.181 337.522 299.912 336.104 301.976 336.104C304.039 336.104 305.77 337.522 306.243 339.433H309.073L309.167 332.311H290.911H290.892C290.425 332.311 290.194 331.846 290.194 330.918V313.515C290.194 313.087 290.311 312.75 290.543 312.5C290.774 312.25 290.999 312.123 291.214 312.123H309.073V305.004H306.338C306.074 307.168 304.225 308.843 301.979 308.843Z" fill="#F1652E"/>
<path d="M288.247 295C286.273 295 284.361 295.428 282.517 296.286C280.668 297.145 279.043 298.308 277.634 299.787C276.224 301.265 275.101 303.015 274.26 305.037C273.419 307.06 273 309.221 273 311.518V332.14C273 334.437 273.419 336.599 274.26 338.621C275.101 340.643 276.224 342.393 277.634 343.871C279.04 345.35 280.668 346.517 282.517 347.372C284.361 348.23 286.273 348.658 288.247 348.658H309.035V341.382H306.197C305.781 343.424 303.97 344.962 301.799 344.962C299.629 344.962 297.817 343.424 297.401 341.382H289.128C287.739 341.382 286.495 341.11 285.398 340.563C284.302 340.016 283.378 339.307 282.63 338.428C282.556 338.342 282.49 338.249 282.42 338.16C282.031 338.269 281.619 338.332 281.194 338.332C278.714 338.332 276.706 336.33 276.706 333.857C276.706 331.689 278.252 329.883 280.299 329.472V311.518C280.299 310.424 280.499 309.32 280.901 308.21C281.303 307.099 281.878 306.105 282.63 305.23C283.378 304.355 284.302 303.642 285.398 303.095C286.495 302.548 287.739 302.273 289.128 302.273H297.544C298.139 300.496 299.818 299.213 301.799 299.213C303.78 299.213 305.459 300.496 306.054 302.273H309.039V295H288.247Z" fill="#F1652E"/>
</g>
<g opacity="0.09">
<path d="M374.979 480.843C372.733 480.843 370.884 479.165 370.614 477.004H363.249C361.994 477.004 360.899 477.254 359.967 477.753C359.034 478.253 358.262 478.896 357.655 479.681C357.046 480.466 356.589 481.349 356.283 482.332C355.976 483.315 355.826 484.269 355.826 485.197V501.747C357.743 502.221 359.168 503.941 359.168 505.995C359.168 507.186 358.689 508.263 357.913 509.055C358.48 509.704 359.158 510.252 359.967 510.684C360.899 511.183 361.991 511.433 363.249 511.433H370.708C371.181 509.522 372.912 508.104 374.976 508.104C377.039 508.104 378.77 509.522 379.243 511.433H382.073L382.167 504.311H363.911H363.892C363.425 504.311 363.194 503.846 363.194 502.918V485.515C363.194 485.087 363.311 484.75 363.543 484.5C363.774 484.25 363.999 484.123 364.214 484.123H382.073V477.004H379.338C379.074 479.168 377.225 480.843 374.979 480.843Z" fill="#F1652E"/>
<path d="M361.247 467C359.273 467 357.361 467.428 355.517 468.286C353.668 469.145 352.043 470.308 350.634 471.787C349.224 473.265 348.101 475.015 347.26 477.037C346.419 479.06 346 481.221 346 483.518V504.14C346 506.437 346.419 508.599 347.26 510.621C348.101 512.643 349.224 514.393 350.634 515.871C352.04 517.35 353.668 518.517 355.517 519.372C357.361 520.23 359.273 520.658 361.247 520.658H382.035V513.382H379.197C378.781 515.424 376.97 516.962 374.799 516.962C372.629 516.962 370.817 515.424 370.401 513.382H362.128C360.739 513.382 359.495 513.11 358.398 512.563C357.302 512.016 356.378 511.307 355.63 510.428C355.556 510.342 355.49 510.249 355.42 510.16C355.031 510.269 354.619 510.332 354.194 510.332C351.714 510.332 349.706 508.33 349.706 505.857C349.706 503.689 351.252 501.883 353.299 501.472V483.518C353.299 482.424 353.499 481.32 353.901 480.21C354.303 479.099 354.878 478.105 355.63 477.23C356.378 476.355 357.302 475.642 358.398 475.095C359.495 474.548 360.739 474.273 362.128 474.273H370.544C371.139 472.496 372.818 471.213 374.799 471.213C376.78 471.213 378.459 472.496 379.054 474.273H382.039V467H361.247Z" fill="#F1652E"/>
</g>
<g opacity="0.09">
<path d="M282.979 641.843C280.733 641.843 278.884 640.165 278.614 638.004H271.249C269.994 638.004 268.899 638.254 267.967 638.753C267.034 639.253 266.262 639.896 265.655 640.681C265.046 641.466 264.589 642.349 264.283 643.332C263.976 644.315 263.826 645.269 263.826 646.197V662.747C265.743 663.221 267.168 664.941 267.168 666.995C267.168 668.186 266.689 669.263 265.913 670.055C266.48 670.704 267.158 671.252 267.967 671.684C268.899 672.183 269.991 672.433 271.249 672.433H278.708C279.181 670.522 280.912 669.104 282.976 669.104C285.039 669.104 286.77 670.522 287.243 672.433H290.073L290.167 665.311H271.911H271.892C271.425 665.311 271.194 664.846 271.194 663.918V646.515C271.194 646.087 271.311 645.75 271.543 645.5C271.774 645.25 271.999 645.123 272.214 645.123H290.073V638.004H287.338C287.074 640.168 285.225 641.843 282.979 641.843Z" fill="#F1652E"/>
<path d="M269.247 628C267.273 628 265.361 628.428 263.517 629.286C261.668 630.145 260.043 631.308 258.634 632.787C257.224 634.265 256.101 636.015 255.26 638.037C254.419 640.06 254 642.221 254 644.518V665.14C254 667.437 254.419 669.599 255.26 671.621C256.101 673.643 257.224 675.393 258.634 676.871C260.04 678.35 261.668 679.517 263.517 680.372C265.361 681.23 267.273 681.658 269.247 681.658H290.035V674.382H287.197C286.781 676.424 284.97 677.962 282.799 677.962C280.629 677.962 278.817 676.424 278.401 674.382H270.128C268.739 674.382 267.495 674.11 266.398 673.563C265.302 673.016 264.378 672.307 263.63 671.428C263.556 671.342 263.49 671.249 263.42 671.16C263.031 671.269 262.619 671.332 262.194 671.332C259.714 671.332 257.706 669.33 257.706 666.857C257.706 664.689 259.252 662.883 261.299 662.472V644.518C261.299 643.424 261.499 642.32 261.901 641.21C262.303 640.099 262.878 639.105 263.63 638.23C264.378 637.355 265.302 636.642 266.398 636.095C267.495 635.548 268.739 635.273 270.128 635.273H278.544C279.139 633.496 280.818 632.213 282.799 632.213C284.78 632.213 286.459 633.496 287.054 635.273H290.039V628H269.247Z" fill="#F1652E"/>
</g>
<g opacity="0.09">
<path d="M292.979 955.843C290.733 955.843 288.884 954.165 288.614 952.004H281.249C279.994 952.004 278.899 952.254 277.967 952.753C277.034 953.253 276.262 953.896 275.655 954.681C275.046 955.466 274.589 956.349 274.283 957.332C273.976 958.315 273.826 959.269 273.826 960.197V976.747C275.743 977.221 277.168 978.941 277.168 980.995C277.168 982.186 276.689 983.263 275.913 984.055C276.48 984.704 277.158 985.252 277.967 985.684C278.899 986.183 279.991 986.433 281.249 986.433H288.708C289.181 984.522 290.912 983.104 292.976 983.104C295.039 983.104 296.77 984.522 297.243 986.433H300.073L300.167 979.311H281.911H281.892C281.425 979.311 281.194 978.846 281.194 977.918V960.515C281.194 960.087 281.311 959.75 281.543 959.5C281.774 959.25 281.999 959.123 282.214 959.123H300.073V952.004H297.338C297.074 954.168 295.225 955.843 292.979 955.843Z" fill="#F1652E"/>
<path d="M279.247 942C277.273 942 275.361 942.428 273.517 943.286C271.668 944.145 270.043 945.308 268.634 946.787C267.224 948.265 266.101 950.015 265.26 952.037C264.419 954.06 264 956.221 264 958.518V979.14C264 981.437 264.419 983.599 265.26 985.621C266.101 987.643 267.224 989.393 268.634 990.871C270.04 992.35 271.668 993.517 273.517 994.372C275.361 995.23 277.273 995.658 279.247 995.658H300.035V988.382H297.197C296.781 990.424 294.97 991.962 292.799 991.962C290.629 991.962 288.817 990.424 288.401 988.382H280.128C278.739 988.382 277.495 988.11 276.398 987.563C275.302 987.016 274.378 986.307 273.63 985.428C273.556 985.342 273.49 985.249 273.42 985.16C273.031 985.269 272.619 985.332 272.194 985.332C269.714 985.332 267.706 983.33 267.706 980.857C267.706 978.689 269.252 976.883 271.299 976.472V958.518C271.299 957.424 271.499 956.32 271.901 955.21C272.303 954.099 272.878 953.105 273.63 952.23C274.378 951.355 275.302 950.642 276.398 950.095C277.495 949.548 278.739 949.273 280.128 949.273H288.544C289.139 947.496 290.818 946.213 292.799 946.213C294.78 946.213 296.459 947.496 297.054 949.273H300.039V942H279.247Z" fill="#F1652E"/>
</g>
<g opacity="0.09">
<path d="M362.979 15.8427C360.733 15.8427 358.884 14.165 358.614 12.0038H351.249C349.994 12.0038 348.899 12.2537 347.967 12.7534C347.034 13.2531 346.262 13.8957 345.655 14.6809C345.046 15.4662 344.589 16.3489 344.283 17.3321C343.976 18.3154 343.826 19.2694 343.826 20.1975V36.747C345.743 37.2208 347.168 38.9406 347.168 40.9947C347.168 42.1856 346.689 43.263 345.913 44.0547C346.48 44.7037 347.158 45.2522 347.967 45.6837C348.899 46.1835 349.991 46.4333 351.249 46.4333H358.708C359.181 44.522 360.912 43.104 362.976 43.104C365.039 43.104 366.77 44.522 367.243 46.4333H370.073L370.167 39.3105H351.911H351.892C351.425 39.3105 351.194 38.8465 351.194 37.9184V20.5155C351.194 20.0871 351.311 19.7496 351.543 19.4998C351.774 19.2499 351.999 19.1234 352.214 19.1234H370.073V12.0038H367.338C367.074 14.1682 365.225 15.8427 362.979 15.8427Z" fill="#F1652E"/>
<path d="M349.247 2C347.273 2 345.361 2.42762 343.517 3.28618C341.668 4.14473 340.043 5.30826 338.634 6.7867C337.224 8.26514 336.101 10.0154 335.26 12.0375C334.419 14.0596 334 16.2209 334 18.5181V39.14C334 41.4372 334.419 43.5985 335.26 45.6206C336.101 47.6427 337.224 49.393 338.634 50.8714C340.04 52.3498 341.668 53.5167 343.517 54.3719C345.361 55.2305 347.273 55.6581 349.247 55.6581H370.035V48.3819H367.197C366.781 50.4239 364.97 51.962 362.799 51.962C360.629 51.962 358.817 50.4239 358.401 48.3819H350.128C348.739 48.3819 347.495 48.1101 346.398 47.5631C345.302 47.0162 344.378 46.3068 343.63 45.4284C343.556 45.3422 343.49 45.2494 343.42 45.1599C343.031 45.2692 342.619 45.3322 342.194 45.3322C339.714 45.3322 337.706 43.33 337.706 40.8571C337.706 38.6892 339.252 36.8826 341.299 36.4715V18.5181C341.299 17.4242 341.499 16.3203 341.901 15.2098C342.303 14.0993 342.878 13.1049 343.63 12.2297C344.378 11.3546 345.302 10.6419 346.398 10.095C347.495 9.548 348.739 9.27287 350.128 9.27287H358.544C359.139 7.49609 360.818 6.21322 362.799 6.21322C364.78 6.21322 366.459 7.49609 367.054 9.27287H370.039V2L349.247 2Z" fill="#F1652E"/>
</g>
<g opacity="0.09">
<path d="M384.979 809.843C382.733 809.843 380.884 808.165 380.614 806.004H373.249C371.994 806.004 370.899 806.254 369.967 806.753C369.034 807.253 368.262 807.896 367.655 808.681C367.046 809.466 366.589 810.349 366.283 811.332C365.976 812.315 365.826 813.269 365.826 814.197V830.747C367.743 831.221 369.168 832.941 369.168 834.995C369.168 836.186 368.689 837.263 367.913 838.055C368.48 838.704 369.158 839.252 369.967 839.684C370.899 840.183 371.991 840.433 373.249 840.433H380.708C381.181 838.522 382.912 837.104 384.976 837.104C387.039 837.104 388.77 838.522 389.243 840.433H392.073L392.167 833.311H373.911H373.892C373.425 833.311 373.194 832.846 373.194 831.918V814.515C373.194 814.087 373.311 813.75 373.543 813.5C373.774 813.25 373.999 813.123 374.214 813.123H392.073V806.004H389.338C389.074 808.168 387.225 809.843 384.979 809.843Z" fill="#F1652E"/>
<path d="M371.247 796C369.273 796 367.361 796.428 365.517 797.286C363.668 798.145 362.043 799.308 360.634 800.787C359.224 802.265 358.101 804.015 357.26 806.037C356.419 808.06 356 810.221 356 812.518V833.14C356 835.437 356.419 837.599 357.26 839.621C358.101 841.643 359.224 843.393 360.634 844.871C362.04 846.35 363.668 847.517 365.517 848.372C367.361 849.23 369.273 849.658 371.247 849.658H392.035V842.382H389.197C388.781 844.424 386.97 845.962 384.799 845.962C382.629 845.962 380.817 844.424 380.401 842.382H372.128C370.739 842.382 369.495 842.11 368.398 841.563C367.302 841.016 366.378 840.307 365.63 839.428C365.556 839.342 365.49 839.249 365.42 839.16C365.031 839.269 364.619 839.332 364.194 839.332C361.714 839.332 359.706 837.33 359.706 834.857C359.706 832.689 361.252 830.883 363.299 830.472V812.518C363.299 811.424 363.499 810.32 363.901 809.21C364.303 808.099 364.878 807.105 365.63 806.23C366.378 805.355 367.302 804.642 368.398 804.095C369.495 803.548 370.739 803.273 372.128 803.273H380.544C381.139 801.496 382.818 800.213 384.799 800.213C386.78 800.213 388.459 801.496 389.054 803.273H392.039V796H371.247Z" fill="#F1652E"/>
</g>
<g opacity="0.09">
<path d="M362.979 1113.84C360.733 1113.84 358.884 1112.16 358.614 1110H351.249C349.994 1110 348.899 1110.25 347.967 1110.75C347.034 1111.25 346.262 1111.9 345.655 1112.68C345.046 1113.47 344.589 1114.35 344.283 1115.33C343.976 1116.32 343.826 1117.27 343.826 1118.2V1134.75C345.743 1135.22 347.168 1136.94 347.168 1138.99C347.168 1140.19 346.689 1141.26 345.913 1142.05C346.48 1142.7 347.158 1143.25 347.967 1143.68C348.899 1144.18 349.991 1144.43 351.249 1144.43H358.708C359.181 1142.52 360.912 1141.1 362.976 1141.1C365.039 1141.1 366.77 1142.52 367.243 1144.43H370.073L370.167 1137.31H351.911H351.892C351.425 1137.31 351.194 1136.85 351.194 1135.92V1118.52C351.194 1118.09 351.311 1117.75 351.543 1117.5C351.774 1117.25 351.999 1117.12 352.214 1117.12H370.073V1110H367.338C367.074 1112.17 365.225 1113.84 362.979 1113.84Z" fill="#F1652E"/>
<path d="M349.247 1100C347.273 1100 345.361 1100.43 343.517 1101.29C341.668 1102.14 340.043 1103.31 338.634 1104.79C337.224 1106.27 336.101 1108.02 335.26 1110.04C334.419 1112.06 334 1114.22 334 1116.52V1137.14C334 1139.44 334.419 1141.6 335.26 1143.62C336.101 1145.64 337.224 1147.39 338.634 1148.87C340.04 1150.35 341.668 1151.52 343.517 1152.37C345.361 1153.23 347.273 1153.66 349.247 1153.66H370.035V1146.38H367.197C366.781 1148.42 364.97 1149.96 362.799 1149.96C360.629 1149.96 358.817 1148.42 358.401 1146.38H350.128C348.739 1146.38 347.495 1146.11 346.398 1145.56C345.302 1145.02 344.378 1144.31 343.63 1143.43C343.556 1143.34 343.49 1143.25 343.42 1143.16C343.031 1143.27 342.619 1143.33 342.194 1143.33C339.714 1143.33 337.706 1141.33 337.706 1138.86C337.706 1136.69 339.252 1134.88 341.299 1134.47V1116.52C341.299 1115.42 341.499 1114.32 341.901 1113.21C342.303 1112.1 342.878 1111.1 343.63 1110.23C344.378 1109.35 345.302 1108.64 346.398 1108.09C347.495 1107.55 348.739 1107.27 350.128 1107.27H358.544C359.139 1105.5 360.818 1104.21 362.799 1104.21C364.78 1104.21 366.459 1105.5 367.054 1107.27H370.039V1100H349.247Z" fill="#F1652E"/>
</g>
</svg>
