<svg width="420" height="420" viewBox="0 0 420 420" fill="none" xmlns="http://www.w3.org/2000/svg">
<g clip-path="url(#clip0_149_271)">
<path d="M147 200.55V235.2M147 200.55C132.798 200.55 119.177 194.908 109.134 184.866C99.0919 174.823 93.4501 161.202 93.4501 147C93.4501 132.798 99.0919 119.177 109.134 109.134C119.177 99.0919 132.798 93.45 147 93.45M147 200.55C161.202 200.55 174.823 194.908 184.866 184.866C194.908 174.823 200.55 161.202 200.55 147C200.55 132.798 194.908 119.177 184.866 109.134C174.823 99.0919 161.202 93.45 147 93.45M147 58.8V93.45M223.44 102.9L193.2 120.33M70.5601 191.1L100.8 173.67M100.8 120.12L70.5601 102.9M193.41 173.88L223.44 191.1" stroke="#F1652E" stroke-width="15" stroke-linecap="round"/>
<path d="M273 326.55V361.2M273 326.55C258.798 326.55 245.177 320.908 235.134 310.866C225.092 300.823 219.45 287.202 219.45 273C219.45 258.798 225.092 245.177 235.134 235.134C245.177 225.092 258.798 219.45 273 219.45M273 326.55C287.202 326.55 300.823 320.908 310.866 310.866C320.908 300.823 326.55 287.202 326.55 273C326.55 258.798 320.908 245.177 310.866 235.134C300.823 225.092 287.202 219.45 273 219.45M273 184.8V219.45M349.44 228.9L319.41 246.33M196.56 317.1L226.59 299.67M226.59 246.33L196.56 228.9M319.41 299.88L349.44 317.1" stroke="#F1652E" stroke-width="15" stroke-linecap="round"/>
</g>
<defs>
<clipPath id="clip0_149_271">
<rect width="420" height="420" fill="white"/>
</clipPath>
</defs>
</svg>
